<svg width="511" height="248" viewBox="0 0 511 248" fill="none" xmlns="http://www.w3.org/2000/svg">
<path fill-rule="evenodd" clip-rule="evenodd" d="M378.872 1.77106C374.218 3.92896 369.951 8.19669 368.44 12.2041C366.944 16.1674 367.117 24.3744 368.775 28.1925C369.553 29.9829 386.21 47.4293 406.268 67.4632L442.362 103.512L227.678 104.012L12.9956 104.513L9.1799 106.889C7.08061 108.196 4.1566 111.093 2.68209 113.325C0.447849 116.706 0 118.496 0 124.039C0 129.583 0.447849 131.372 2.68209 134.754C4.1566 136.986 7.08061 139.882 9.1799 141.189L12.9956 143.565L227.678 144.066L442.362 144.567L406.268 180.615C386.21 200.649 369.553 218.095 368.775 219.886C367.117 223.704 366.944 231.911 368.44 235.874C372.096 245.57 385.121 250.829 394.576 246.427C398.901 244.413 504.936 140.039 508.517 134.269C511.947 128.744 511.802 118.859 508.213 113.427C504.054 107.13 398.83 3.62956 394.578 1.6509C389.757 -0.592107 383.87 -0.547051 378.872 1.77106Z" fill="black"/>
</svg>
